<svg width="213" height="32" viewBox="0 0 213 32" fill="none" xmlns="http://www.w3.org/2000/svg">
<g id="asvalogo-60123230 1">
<path id="Vector" d="M17.366 30.461C8.65175 30.461 4.29431 30.461 2.66838 27.6409C1.04212 24.8209 3.22006 21.0411 7.5753 13.4812C11.9336 5.91586 14.1132 2.1333 17.366 2.1333C20.6188 2.1333 22.798 5.91586 27.1566 13.4812C31.512 21.0411 33.6899 24.8209 32.0636 27.6409C30.4377 30.461 26.0802 30.461 17.366 30.461Z" stroke="url(#paint0_linear_486_2347)" stroke-width="2.88665"/>
<path id="Vector_2" d="M24.7359 9.0708L22.1705 12.9674C17.0972 20.6739 14.5606 24.5273 16.1556 27.494C17.2096 29.4542 19.5783 30.1192 23.7227 30.3448" stroke="url(#paint1_linear_486_2347)" stroke-width="2.88665"/>
<path id="Vector_3" d="M47.5078 27.2825L53.1396 9.12777C53.7551 7.18592 55.263 6.26123 56.9864 6.26123C58.7406 6.26123 60.2486 7.18592 60.8641 9.12777L66.4959 27.2825H63.2953L61.7873 22.2275L52.1856 22.2584L50.6776 27.2825H47.5078ZM55.8478 10.0525L53.0473 19.3918H60.9564L58.1867 10.0525C57.9712 9.40518 57.602 9.09695 57.0172 9.09695C56.4017 9.09695 56.0325 9.40518 55.8478 10.0525ZM76.8809 27.6216C73.4034 27.6216 70.4798 26.0496 69.2488 23.2139L71.8955 21.9193C72.6956 23.707 74.4498 24.6625 76.8809 24.6625C79.2813 24.6625 81.1278 23.5221 81.1278 21.4878C81.1278 19.2068 79.0352 18.8062 76.6039 18.3438C73.4957 17.7274 69.6488 16.7102 69.6488 12.3333C69.6488 8.91201 72.7572 6.32288 76.6655 6.32288C79.8046 6.32288 82.6051 7.80238 83.836 10.6381L81.2202 11.9944C80.3893 10.299 78.8198 9.25106 76.5425 9.25106C74.4498 9.25106 72.7572 10.484 72.7572 12.2409C72.7572 14.4602 74.9421 14.9533 77.435 15.4465C80.5124 16.0629 84.2669 17.0801 84.2669 21.457C84.2669 25.0941 81.0356 27.6216 76.8809 27.6216ZM96.1376 27.6832C94.1065 27.6832 92.7523 26.5427 92.0445 24.2927L86.6281 6.63111H89.8288L94.9374 23.4913C95.1528 24.2311 95.5221 24.6009 96.1376 24.6009C96.7531 24.6009 97.1224 24.2311 97.3378 23.4913L102.385 6.63111H105.616L100.2 24.2927C99.4921 26.5427 98.1071 27.6832 96.1376 27.6832ZM105.421 27.2825L111.053 9.12777C111.668 7.18592 113.176 6.26123 114.9 6.26123C116.654 6.26123 118.162 7.18592 118.778 9.12777L124.409 27.2825H121.208L119.7 22.2275L110.099 22.2584L108.591 27.2825H105.421ZM113.761 10.0525L110.961 19.3918H118.869L116.1 10.0525C115.884 9.40518 115.516 9.09695 114.931 9.09695C114.315 9.09695 113.946 9.40518 113.761 10.0525ZM140.554 6.63111V24.3852H150.802V27.2825H140.308C138.215 27.2825 137.415 26.2037 137.415 24.4468V6.63111H140.554ZM152.665 27.2825L158.297 9.12777C158.912 7.18592 160.42 6.26123 162.143 6.26123C163.898 6.26123 165.406 7.18592 166.021 9.12777L171.653 27.2825H168.453L166.944 22.2275L157.344 22.2584L155.835 27.2825H152.665ZM161.005 10.0525L158.205 19.3918H166.114L163.344 10.0525C163.129 9.40518 162.759 9.09695 162.174 9.09695C161.559 9.09695 161.19 9.40518 161.005 10.0525ZM182.962 27.2825H175.883V6.63111H183.115C188.162 6.63111 191.24 8.63461 191.24 12.1176C191.24 14.6451 189.886 16.2787 187.701 16.9568C190.071 17.5116 191.548 18.9295 191.548 21.5803C191.548 25.8647 187.762 27.2825 182.962 27.2825ZM179.023 9.25106V15.693H183.208C186.654 15.693 188.101 14.6451 188.101 12.3333C188.101 10.299 186.316 9.25106 183.27 9.25106H179.023ZM179.023 18.313V24.6625H183.115C185.947 24.6625 188.408 24.1077 188.408 21.3645C188.408 19.1145 186.747 18.313 183.208 18.313H179.023ZM202.564 27.6216C199.087 27.6216 196.164 26.0496 194.933 23.2139L197.579 21.9193C198.379 23.707 200.134 24.6625 202.564 24.6625C204.965 24.6625 206.812 23.5221 206.812 21.4878C206.812 19.2068 204.719 18.8062 202.288 18.3438C199.18 17.7274 195.333 16.7102 195.333 12.3333C195.333 8.91201 198.441 6.32288 202.349 6.32288C205.489 6.32288 208.289 7.80238 209.52 10.6381L206.904 11.9944C206.074 10.299 204.504 9.25106 202.227 9.25106C200.134 9.25106 198.441 10.484 198.441 12.2409C198.441 14.4602 200.626 14.9533 203.119 15.4465C206.196 16.0629 209.951 17.0801 209.951 21.457C209.951 25.0941 206.719 27.6216 202.564 27.6216Z" fill="url(#paint2_linear_486_2347)"/>
</g>
<defs>
<linearGradient id="paint0_linear_486_2347" x1="17.366" y1="-3.5128" x2="17.366" y2="30.461" gradientUnits="userSpaceOnUse">
<stop/>
<stop offset="1"/>
</linearGradient>
<linearGradient id="paint1_linear_486_2347" x1="25.8099" y1="12.0939" x2="17.5581" y2="31.5318" gradientUnits="userSpaceOnUse">
<stop stop-opacity="0"/>
<stop offset="0.98"/>
</linearGradient>
<linearGradient id="paint2_linear_486_2347" x1="129.47" y1="2.74919" x2="129.47" y2="31.5491" gradientUnits="userSpaceOnUse">
<stop/>
<stop offset="1"/>
</linearGradient>
</defs>
</svg>
