<svg width="148" height="25" viewBox="0 0 148 25" fill="none" xmlns="http://www.w3.org/2000/svg">
<g id="Group 1">
<path id="T" d="M6.47887 24.7014V5.93614H0V0.699341H18.8659V5.93614H12.3871V24.7014H6.47887Z" fill="#121212"/>
<g id="NGIDO">
<path d="M59.8314 0.40283H65.706V24.3713H60.8385L50.6334 10.4736V24.3713H44.7588V0.40283H49.6599L59.8314 14.2669V0.40283Z" fill="#121212"/>
<path d="M89.3597 10.7757V22.525C87.1106 24.0691 83.3508 24.7741 80.9003 24.7741C72.7094 24.7741 67.6069 19.7051 67.6069 12.3535C67.6069 4.63256 73.6157 0 80.5982 0C83.3844 0 86.1371 0.570676 88.7219 1.87988V7.7545C86.0364 6.07603 83.3844 5.47179 81.0681 5.47179C76.7377 5.47179 73.6493 8.05662 73.6493 12.4542C73.6493 17.0196 76.6706 19.3359 80.7996 19.3359C81.8066 19.3359 83.0151 19.2016 84.1901 18.8659V15.4419H79.5239V10.7757H89.3597Z" fill="#121212"/>
<path d="M91.7885 24.3713V0.40283H97.6967V24.3713H91.7885Z" fill="#121212"/>
<path d="M100.83 24.3713V0.369261H109.793C117.01 0.369261 122.113 5.6732 122.113 12.3535C122.113 19.0673 117.01 24.3713 109.793 24.3713H100.83ZM106.705 19.2687H109.256C113.083 19.2687 116.037 16.4825 116.037 12.3535C116.037 8.25803 113.083 5.47179 109.289 5.47179H106.705V19.2687Z" fill="#121212"/>
<path d="M135.347 0C142.732 0 147.868 5.50536 147.868 12.3871C147.868 19.2687 142.699 24.7741 135.313 24.7741C127.928 24.7741 122.792 19.2687 122.792 12.3871C122.792 5.50536 127.928 0 135.347 0ZM135.347 5.50536C131.419 5.50536 128.835 8.49302 128.835 12.3871C128.835 16.2475 131.419 19.2687 135.347 19.2687C139.241 19.2687 141.826 16.2475 141.826 12.3871C141.826 8.49302 139.241 5.50536 135.347 5.50536Z" fill="#121212"/>
</g>
<path id="Exclude" fill-rule="evenodd" clip-rule="evenodd" d="M30.2474 0.699341L41.9617 23.6034H18.8828L30.2474 0.699341ZM30.4265 5.02403L21.9205 21.855H38.9485L37.6897 19.7569H25.4579L30.4215 9.66418L33.4645 15.9104H28.9051L28.0659 18.0085H36.6444L30.4265 5.02403Z" fill="#121212"/>
</g>
</svg>
